<?xml version="1.0" encoding="utf-8"?>
<!-- Generator: Adobe Illustrator 19.2.1, SVG Export Plug-In . SVG Version: 6.00 Build 0)  -->
<svg version="1.1" id="Calque_1" xmlns="http://www.w3.org/2000/svg" xmlns:xlink="http://www.w3.org/1999/xlink" x="0px" y="0px"
	 viewBox="0 0 283.5 283.5" style="enable-background:new 0 0 283.5 283.5;" xml:space="preserve">
<style type="text/css">
	.st0{fill:none;stroke:#A4C3E0;stroke-width:8;stroke-miterlimit:10;}
	.st1{fill:#A4C3E0;}
	.st2{fill:#525353;}
	.st3{fill:#AA9678;}
	.st4{fill:#C0B098;}
	.st5{fill:#786453;}
	.st6{fill:#8B7460;}
	.st7{fill:none;}
	.st8{fill:#FFFFFF;}
	.st9{fill:#BBBCBD;}
	.st10{fill:#676A6A;}
	.st11{fill:#909393;}
	.st12{fill:#E2DDDB;}
	.st13{fill:#FBB040;}
	.st14{fill:#9F2255;}
	.st15{fill:#E2066F;}
</style>
<circle class="st0" cx="142.4" cy="143.4" r="131"/>
<g id="Calque_2">
	<g id="XMLID_192_">
		<g id="XMLID_323_">
			<path id="XMLID_341_" class="st1" d="M117.2,151.3c0-0.1,0-0.3,0-0.6c0-1.6,0.5-2.9,1.6-3.8c1.1-0.9,2.3-1.4,3.6-1.4
				c1.7,0,2.9,0.6,3.6,1.9L117.2,151.3z M129.7,149c0-1.9-0.7-3.5-2.2-4.6c-1.4-1.2-3.2-1.8-5.3-1.8c-1.4,0-2.6,0.3-3.9,0.9
				c-1.2,0.6-2.2,1.5-3.1,2.8c-0.8,1.3-1.2,2.7-1.2,4.4c0,2.4,0.8,4.4,2.4,5.8c1.6,1.5,3.5,2.2,5.7,2.2c2.5,0,4.7-1,6.6-2.9
				l-1.9-2.2c-1.1,1.4-2.6,2.1-4.3,2.1s-3.2-0.6-4.2-1.9L129.7,149L129.7,149z"/>
			<path id="XMLID_189_" class="st1" d="M110.2,143.6c-0.9,0.6-1.6,1.4-2.2,2.4v-3.2h-3.3v15.7h3.3v-6.7c0-1.8,0.4-3.2,1.2-4.3
				c0.8-1.1,2.1-1.6,3.7-1.6h0.2l0-3.3C112.1,142.6,111.2,143,110.2,143.6"/>
			<path id="XMLID_188_" class="st1" d="M141.5,150.5c-0.5-0.4-1-0.6-1.5-0.8c-0.5-0.2-0.9-0.4-1.4-0.5c-0.5-0.2-1.1-0.3-1.7-0.5
				c-0.6-0.2-1.1-0.3-1.5-0.5c-0.5-0.2-0.8-0.6-0.8-1.1c0-0.6,0.2-1,0.7-1.3c0.5-0.3,1.1-0.4,1.9-0.4c1.5,0,2.9,0.4,4.2,1.3l1.2-2.4
				c-1.6-1.1-3.3-1.6-5.1-1.6c-1.8,0-3.3,0.4-4.4,1.3c-1.1,0.9-1.7,2-1.7,3.5c0,2.1,1.6,3.5,4.9,4.4c0.1,0,0.2,0.1,0.4,0.1
				c2.1,0.6,3.1,1.3,3.1,2.1c0,0.5-0.2,1-0.6,1.3c-0.4,0.3-1,0.5-1.8,0.5c-1.7,0-3.5-0.7-5.3-2.1l-1.6,2.6c0.9,0.7,2,1.3,3.3,1.7
				c1.2,0.4,2.4,0.6,3.6,0.6c1.7,0,3.1-0.4,4.2-1.3c1.1-0.9,1.6-2.1,1.6-3.6C143.1,152.4,142.6,151.3,141.5,150.5"/>
			<path id="XMLID_336_" class="st1" d="M97.8,148.2c-0.7,0.7-2,1.1-3.9,1.1h-4v-8.3h3.5c1.9,0,3.3,0.3,4.2,0.9
				c0.9,0.6,1.3,1.6,1.3,3C98.9,146.4,98.5,147.5,97.8,148.2 M100.3,139.7c-1.4-1.2-3.7-1.8-6.8-1.8h-7.1v20.6h3.5v-6h3.7
				c3,0,5.3-0.6,6.7-1.7c1.5-1.2,2.2-3,2.2-5.5C102.4,142.8,101.7,140.9,100.3,139.7"/>
			<path id="XMLID_185_" class="st1" d="M150.8,155.9c-0.7,0-1.3-0.2-1.7-0.7c-0.4-0.4-0.6-1-0.6-1.8v-8h4.1v-2.7h-4.1v-4.9h-3.3
				v15.5c0,1.7,0.5,3,1.5,3.9c1,1,2.2,1.5,3.6,1.5c1.4,0,2.7-0.5,3.8-1.6l-1.4-2.3C152.2,155.6,151.5,155.9,150.8,155.9"/>
			<path id="XMLID_332_" class="st1" d="M166,154.4c-0.9,1-2,1.4-3.3,1.4c-1.3,0-2.4-0.5-3.4-1.4c-1-0.9-1.4-2.2-1.4-3.7
				c0-1.5,0.5-2.8,1.4-3.8c0.9-1,2.1-1.5,3.4-1.5c1.3,0,2.4,0.5,3.3,1.5c0.9,1,1.4,2.3,1.4,3.7C167.3,152.2,166.9,153.5,166,154.4
				 M167.3,145.6c-1.3-2-3-2.9-5.1-2.9c-2.1,0-3.9,0.7-5.4,2.2c-1.5,1.5-2.3,3.4-2.3,5.8c0,2.4,0.7,4.4,2.2,5.9
				c1.5,1.5,3.2,2.2,5.2,2.2c1,0,2-0.2,2.9-0.7c1-0.5,1.8-1.2,2.4-2.1v2.6h3.3v-15.7h-3.3L167.3,145.6L167.3,145.6z"/>
			<path id="XMLID_329_" class="st1" d="M219.5,154.4c-0.9,1-2.1,1.4-3.6,1.4c-1.4,0-2.6-0.5-3.6-1.4c-0.9-1-1.4-2.2-1.4-3.7
				c0-1.5,0.5-2.7,1.4-3.7c0.9-1,2.1-1.4,3.6-1.4c1.4,0,2.6,0.5,3.6,1.4c0.9,1,1.4,2.2,1.4,3.7S220.4,153.4,219.5,154.4 M216,142.6
				c-2.4,0-4.3,0.8-5.9,2.3c-1.6,1.6-2.4,3.5-2.4,5.7c0,2.3,0.8,4.2,2.4,5.7c1.6,1.6,3.5,2.3,5.9,2.3s4.3-0.8,5.9-2.3
				c1.6-1.6,2.4-3.5,2.4-5.7c0-2.3-0.8-4.2-2.4-5.7C220.3,143.4,218.3,142.6,216,142.6"/>
			<path id="XMLID_326_" class="st1" d="M237.5,154.4c-1,0.9-2.1,1.4-3.4,1.4s-2.4-0.5-3.3-1.4c-0.9-1-1.4-2.2-1.4-3.7
				c0-1.5,0.5-2.7,1.4-3.7c0.9-1,2-1.5,3.3-1.5c1.3,0,2.4,0.5,3.4,1.5c0.9,1,1.4,2.2,1.4,3.7C238.9,152.2,238.4,153.5,237.5,154.4
				 M240,144.8c-1.5-1.5-3.3-2.2-5.4-2.2c-2.1,0-3.8,1-5.1,3v-2.7h-3.3v21.4h3.3v-8.1c1.6,1.7,3.3,2.6,5.3,2.6c2,0,3.7-0.8,5.2-2.3
				c1.5-1.5,2.2-3.5,2.2-5.9S241.5,146.2,240,144.8"/>
			<path id="XMLID_178_" class="st1" d="M200,142.6c-1.1,0-2.1,0.3-3.1,0.8c-1,0.6-1.7,1.3-2.1,2.3v-9h-3.3v21.9h3.3V150
				c0-1.5,0.4-2.6,1.3-3.3c0.8-0.8,1.8-1.1,3-1.1c2.4,0,3.6,1.4,3.6,4.3v8.6h3.3v-9.6c0-2-0.5-3.6-1.6-4.7
				C203.2,143.2,201.8,142.6,200,142.6"/>
			<path id="XMLID_177_" class="st1" d="M187.5,148.6c-1.1-0.9-2.7-1.6-4.8-2.2c-2.1-0.5-3.5-1-4.1-1.4c-0.6-0.4-1-1.1-1-1.9
				c0-0.8,0.3-1.5,1-1.9c0.6-0.4,1.5-0.6,2.5-0.6c1,0,2,0.2,3.1,0.5c1,0.4,1.9,0.8,2.5,1.4l1.9-2.6c-0.9-0.8-2.1-1.4-3.4-1.8
				c-1.3-0.4-2.6-0.6-3.9-0.6c-2,0-3.8,0.5-5.1,1.5c-1.4,1-2.1,2.5-2.1,4.4s0.6,3.3,1.8,4.2c0.6,0.5,1.3,0.9,2.1,1.2
				c0.8,0.3,1.9,0.6,3.5,1c1.5,0.4,2.6,0.8,3.2,1.2c0.6,0.4,0.9,1.1,0.9,1.9s-0.3,1.4-1,1.9c-0.7,0.5-1.5,0.7-2.7,0.7
				c-2.2,0-4.4-0.9-6.5-2.7l-2.2,2.6c2.5,2.2,5.4,3.3,8.6,3.3c2.2,0,4-0.6,5.3-1.7c1.4-1.1,2-2.6,2-4.4S188.6,149.6,187.5,148.6"/>
		</g>
		<path id="XMLID_176_" class="st1" d="M56.3,156.8c0.3-0.1,0.5-0.2,0.8-0.3c0.3-0.1,0.6-0.2,0.9-0.3c0.4-0.1,0.8-0.2,1.1-0.3
			c0.5-0.1,1-0.2,1.6-0.2c-0.3,0.9-0.6,1.9-1,2.8c0,0.2,0,0.4,0,0.5c0.7-0.1,1.5-0.2,2.2-0.2c0.8,0,1.5,0.1,2.2,0.2
			c0-0.2,0-0.4,0-0.5c-0.4-0.9-0.7-1.8-1-2.8c0.5,0.1,1.1,0.1,1.6,0.2c0.4,0.1,0.8,0.2,1.1,0.3c0.3,0.1,0.6,0.2,0.9,0.3
			c0.3,0.1,0.5,0.2,0.8,0.3c1.8,0.8,3.5,2,4.8,3.6c3.4-2.9,5.6-7.3,5.6-12.1c0-8.9-7.2-16-16-16s-16,7.2-16,16
			c0,4.8,2.2,9.2,5.6,12.1C52.9,158.8,54.5,157.6,56.3,156.8z"/>
		<path id="XMLID_175_" class="st2" d="M57.4,159.7c0.8-0.3,1.5-0.6,2.4-0.8c0-0.2,0-0.4,0-0.5c0.4-0.9,0.7-1.8,1-2.8
			c-0.5,0.1-1.1,0.1-1.6,0.2c-0.4,0.1-0.8,0.2-1.1,0.3c-0.3,0.1-0.6,0.2-0.9,0.3l1.2,0.3L57.4,159.7z"/>
		<path id="XMLID_174_" class="st2" d="M54.6,161.4c0-0.3,0-0.6,0-0.9c0-0.2,0.1-0.3,0.3-0.3h0.3l1-3.4c-1.8,0.8-3.5,2-4.8,3.6
			c0.7,0.6,1.6,1.2,2.4,1.7C54.1,161.9,54.4,161.6,54.6,161.4z"/>
		<path id="XMLID_173_" class="st2" d="M67.6,156.8l1,3.4h0.3c0.2,0,0.3,0.1,0.3,0.3c0,0.3,0,0.6,0,0.9c0.2,0.2,0.5,0.4,0.7,0.7
			c0.9-0.5,1.7-1.1,2.4-1.7C71.1,158.8,69.4,157.6,67.6,156.8z"/>
		<path id="XMLID_172_" class="st2" d="M65.7,156.8l1.2-0.3c-0.3-0.1-0.6-0.2-0.9-0.3c-0.4-0.1-0.8-0.2-1.1-0.3
			c-0.5-0.1-1-0.2-1.6-0.2c0.3,0.9,0.6,1.9,1,2.8c0,0.2,0,0.4,0,0.5c0.8,0.2,1.6,0.4,2.4,0.8L65.7,156.8z"/>
		<path id="XMLID_171_" d="M62,160.2h2.3c0-0.4-0.1-0.8-0.1-1.2c-0.7-0.1-1.5-0.2-2.2-0.2c-0.8,0-1.5,0.1-2.2,0.2
			c0,0.4,0,0.8-0.1,1.2H62z"/>
		<path id="XMLID_170_" d="M53.9,162.1c0.2,0.1,0.4,0.2,0.6,0.3c0.1-0.3,0.1-0.6,0.2-1C54.4,161.6,54.1,161.9,53.9,162.1z"/>
		<path id="XMLID_169_" d="M57.2,160.2h2.5c0-0.4,0.1-0.8,0.1-1.2c-0.8,0.2-1.6,0.4-2.4,0.8L57.2,160.2z"/>
		<path id="XMLID_168_" d="M69.3,161.4c0,0.3,0.1,0.7,0.2,1c0.2-0.1,0.4-0.2,0.6-0.3C69.8,161.9,69.5,161.6,69.3,161.4z"/>
		<path id="XMLID_167_" d="M66.7,160.2l-0.1-0.5c-0.8-0.3-1.5-0.6-2.4-0.8c0,0.4,0,0.8,0.1,1.2L66.7,160.2L66.7,160.2z"/>
		<path id="XMLID_166_" class="st3" d="M57.2,160.2l0.1-0.5l0.9-2.9l-1.2-0.3c-0.3,0.1-0.5,0.2-0.8,0.3l-1,3.4h1.1L57.2,160.2
			L57.2,160.2z"/>
		<path id="XMLID_165_" class="st3" d="M66.5,159.7l0.1,0.5h0.8h1.1l-1-3.4c-0.3-0.1-0.5-0.2-0.8-0.3l-1.2,0.3L66.5,159.7z"/>
		<path id="XMLID_164_" class="st4" d="M55.3,160.9C55.3,160.9,55.4,160.9,55.3,160.9L55.3,160.9C55.3,160.9,55.3,160.9,55.3,160.9z
			"/>
		<path id="XMLID_163_" class="st4" d="M62,160.8h-2.4H57h-1.7c0,0,0,0,0,0c0,0.6-0.1,1.2-0.2,1.8c2.1,1,4.4,1.5,6.9,1.5V160.8z"/>
		<path id="XMLID_162_" class="st3" d="M68.6,160.8L68.6,160.8C68.6,160.9,68.6,160.9,68.6,160.8C68.6,160.9,68.6,160.9,68.6,160.8z
			"/>
		<path id="XMLID_161_" class="st3" d="M68.6,160.8h-1.7h-2.6H62l0,0v3.4c2.5,0,4.8-0.6,6.9-1.5C68.7,162.1,68.6,161.5,68.6,160.8
			C68.6,160.9,68.6,160.9,68.6,160.8z"/>
		<rect id="XMLID_160_" x="62" y="160.5" class="st5" width="0" height="0.3"/>
		<path id="XMLID_159_" class="st6" d="M69.3,161.4c0-0.3,0-0.6,0-0.9c0-0.2-0.1-0.3-0.3-0.3h-0.3h-1.1h-0.8h-2.5H62h-2.3h-2.5h-0.8
			h-1.1H55c-0.2,0-0.3,0.1-0.3,0.3c0,0.3,0,0.6,0,0.9c0,0.3-0.1,0.7-0.2,1c0.2,0.1,0.4,0.2,0.6,0.3c0.1-0.6,0.2-1.2,0.2-1.8
			c0,0,0,0,0,0h0H57h2.6H62l0,0h2.4h2.6h1.7h0c0,0,0,0,0,0c0,0.6,0.1,1.2,0.2,1.8c0.2-0.1,0.4-0.2,0.6-0.3
			C69.4,162.1,69.3,161.8,69.3,161.4z"/>
		<g id="XMLID_195_">
			<path id="XMLID_158_" class="st7" d="M67.4,145.8L67.4,145.8C67.4,145.8,67.4,145.8,67.4,145.8c0.2,0.6,0.4,1.2,0.5,1.8
				c0,0,0,0.1,0,0.1c0,0.1,0,0.1,0,0.2c0-0.1,0-0.2,0-0.3C67.8,147,67.6,146.4,67.4,145.8C67.4,145.8,67.4,145.8,67.4,145.8
				C67.4,145.8,67.4,145.8,67.4,145.8L67.4,145.8z"/>
			<path id="XMLID_157_" class="st7" d="M72,149.4C72,149.4,72,149.4,72,149.4C72,149.4,72,149.4,72,149.4z"/>
			<path id="XMLID_156_" class="st7" d="M72.1,149.3C72.1,149.3,72.1,149.4,72.1,149.3C72.1,149.4,72.1,149.3,72.1,149.3z"/>
			<path id="XMLID_155_" class="st7" d="M66.9,145.4c-0.4-0.3-0.8-0.6-1.2-0.8l0,0C66.1,144.8,66.5,145.1,66.9,145.4z"/>
			<path id="XMLID_154_" class="st7" d="M70.6,149.2C70.6,149.2,70.6,149.2,70.6,149.2C70.6,149.2,70.6,149.2,70.6,149.2z"/>
			<path id="XMLID_153_" class="st7" d="M71.3,150.1C71.3,150.1,71.3,150.1,71.3,150.1C71.3,150.1,71.3,150.1,71.3,150.1z"/>
			<path id="XMLID_152_" class="st7" d="M67.9,147.9c0,0,0,0.1,0,0.1C67.8,148,67.8,147.9,67.9,147.9z"/>
			<path id="XMLID_151_" class="st7" d="M66.3,153.7c-0.2,0.4-0.4,0.8-0.5,1.2C65.9,154.5,66,154.1,66.3,153.7
				c0.1-0.1,0.2-0.3,0.2-0.4C66.4,153.5,66.4,153.6,66.3,153.7C66.3,153.7,66.3,153.7,66.3,153.7z"/>
			<path id="XMLID_150_" class="st7" d="M67.4,145.8C67.4,145.8,67.4,145.7,67.4,145.8L67.4,145.8C67.4,145.7,67.4,145.8,67.4,145.8
				c0.1,0.1,0.2,0.2,0.3,0.3C67.6,146,67.5,145.9,67.4,145.8z"/>
			<path id="XMLID_149_" class="st7" d="M64.2,147.9C64.2,147.9,64.2,147.9,64.2,147.9C64.2,147.9,64.2,147.9,64.2,147.9z"/>
			<path id="XMLID_148_" class="st7" d="M64.1,147.6L64.1,147.6L64.1,147.6z"/>
			<path id="XMLID_147_" class="st7" d="M65.1,144.2C65.1,144.2,65.1,144.2,65.1,144.2C65.1,144.2,65.1,144.2,65.1,144.2z"/>
			<path id="XMLID_146_" class="st7" d="M65.2,144.2C65.2,144.2,65.2,144.2,65.2,144.2C65.2,144.2,65.2,144.2,65.2,144.2z"/>
			<path id="XMLID_145_" class="st7" d="M65.8,145.5c0,0,0,0.1,0,0.1C65.7,145.6,65.8,145.6,65.8,145.5z"/>
			<path id="XMLID_144_" class="st7" d="M64.1,147.8C64.1,147.8,64.1,147.8,64.1,147.8C64.1,147.8,64.1,147.8,64.1,147.8z"/>
			<path id="XMLID_143_" class="st7" d="M71.9,150.9C71.9,150.9,72,151,71.9,150.9C72,151,71.9,150.9,71.9,150.9z"/>
			<path id="XMLID_142_" class="st7" d="M65.7,146c0,0.2,0,0.3,0,0.5C65.7,146.4,65.7,146.2,65.7,146z"/>
			<path id="XMLID_141_" class="st7" d="M64.2,148C64.2,148,64.2,148,64.2,148C64.2,148,64.2,148,64.2,148z"/>
			<path id="XMLID_140_" class="st7" d="M65.7,144.5c-0.1,0-0.2-0.1-0.4-0.2C65.5,144.4,65.6,144.5,65.7,144.5z"/>
			<path id="XMLID_139_" class="st7" d="M65.3,144.3C65.3,144.3,65.3,144.3,65.3,144.3C65.3,144.3,65.3,144.3,65.3,144.3z"/>
			<path id="XMLID_138_" class="st7" d="M65.7,144.5L65.7,144.5C65.7,144.5,65.7,144.5,65.7,144.5C65.7,144.5,65.7,144.5,65.7,144.5
				z"/>
			<path id="XMLID_137_" class="st7" d="M72.5,148.4C72.5,148.4,72.5,148.4,72.5,148.4C72.5,148.4,72.5,148.4,72.5,148.4
				C72.5,148.4,72.5,148.4,72.5,148.4C72.5,148.4,72.5,148.3,72.5,148.4C72.5,148.3,72.5,148.4,72.5,148.4
				C72.5,148.4,72.5,148.4,72.5,148.4z"/>
			<path id="XMLID_136_" class="st7" d="M69.8,148.3C69.9,148.3,69.9,148.4,69.8,148.3C69.9,148.4,69.9,148.4,69.8,148.3L69.8,148.3
				C69.9,148.4,69.9,148.3,69.8,148.3L69.8,148.3z"/>
			<path id="XMLID_135_" class="st7" d="M67.6,146c0.2,0.2,0.4,0.4,0.6,0.6C68.1,146.4,67.9,146.2,67.6,146z"/>
			<path id="XMLID_134_" class="st7" d="M71.8,147.3c0,0,0.1,0,0.1,0C71.9,147.3,71.9,147.3,71.8,147.3z"/>
			<path id="XMLID_133_" class="st7" d="M71.2,148.1C71.2,148.1,71.2,148.1,71.2,148.1C71.2,148.1,71.2,148.1,71.2,148.1z"/>
			<path id="XMLID_132_" class="st7" d="M72,147.3C72,147.3,72,147.3,72,147.3C72,147.3,72,147.3,72,147.3z"/>
			<path id="XMLID_131_" class="st7" d="M72.2,147.5C72.2,147.5,72.2,147.5,72.2,147.5C72.2,147.5,72.2,147.5,72.2,147.5z"/>
			<path id="XMLID_130_" class="st7" d="M72.4,148.1C72.4,148.1,72.4,148.1,72.4,148.1C72.4,148.1,72.4,148.1,72.4,148.1
				C72.4,148.1,72.4,148.1,72.4,148.1C72.4,148.1,72.4,148.1,72.4,148.1z"/>
			<path id="XMLID_129_" class="st7" d="M72.4,148.6C72.4,148.6,72.4,148.6,72.4,148.6C72.4,148.6,72.4,148.6,72.4,148.6
				C72.4,148.6,72.4,148.6,72.4,148.6C72.4,148.6,72.4,148.6,72.4,148.6z"/>
			<path id="XMLID_128_" class="st7" d="M71.4,147.5C71.4,147.5,71.4,147.5,71.4,147.5C71.4,147.5,71.4,147.5,71.4,147.5z"/>
			<path id="XMLID_127_" class="st7" d="M71.7,147.3c0,0,0.1,0,0.1,0C71.8,147.3,71.7,147.3,71.7,147.3z"/>
			<path id="XMLID_126_" class="st7" d="M68.9,147.2c-0.1-0.1-0.2-0.2-0.3-0.3C68.7,147,68.8,147.1,68.9,147.2z"/>
			<path id="XMLID_125_" class="st7" d="M71.8,143.8L71.8,143.8C71.8,143.8,71.8,143.8,71.8,143.8v1.5l-0.6,2.6c0,0,0,0,0,0
				c0,0,0,0,0,0l0,0l0,0l0.6-2.6L71.8,143.8L71.8,143.8L71.8,143.8L71.8,143.8z"/>
			<path id="XMLID_124_" class="st7" d="M69.4,147.8c-0.1-0.1-0.1-0.1-0.2-0.2C69.3,147.7,69.3,147.8,69.4,147.8z"/>
			<path id="XMLID_123_" class="st7" d="M72.4,147.9C72.4,147.9,72.4,147.9,72.4,147.9C72.4,147.9,72.4,147.9,72.4,147.9
				C72.4,147.9,72.4,147.9,72.4,147.9L72.4,147.9L72.4,147.9z"/>
			<path id="XMLID_122_" class="st7" d="M71.2,148.4L71.2,148.4C71.2,148.4,71.2,148.3,71.2,148.4C71.2,148.3,71.2,148.4,71.2,148.4
				z"/>
			<path id="XMLID_121_" class="st7" d="M71.6,147.3C71.6,147.3,71.6,147.3,71.6,147.3C71.6,147.3,71.6,147.3,71.6,147.3z"/>
			<path id="XMLID_120_" class="st7" d="M71.5,147.4C71.5,147.4,71.5,147.4,71.5,147.4C71.5,147.4,71.5,147.4,71.5,147.4z"/>
			<path id="XMLID_119_" class="st7" d="M72.4,148.8C72.4,148.8,72.4,148.8,72.4,148.8c0,0.1,0,0.1-0.1,0.2
				C72.4,148.9,72.4,148.9,72.4,148.8L72.4,148.8L72.4,148.8z"/>
			<path id="XMLID_118_" class="st7" d="M52.9,147.9c0,0,0-0.1,0.1-0.1C52.9,147.8,52.9,147.8,52.9,147.9z"/>
			<path id="XMLID_117_" class="st7" d="M72.1,147.4C72.1,147.4,72.1,147.4,72.1,147.4C72.1,147.4,72.1,147.4,72.1,147.4z"/>
			<path id="XMLID_116_" class="st7" d="M53.3,147.2C53.3,147.2,53.4,147.2,53.3,147.2C53.4,147.2,53.3,147.2,53.3,147.2z"/>
			<path id="XMLID_115_" class="st7" d="M64.3,148.4L64.3,148.4C64.3,148.4,64.3,148.4,64.3,148.4L64.3,148.4L64.3,148.4L64.3,148.4
				C64.3,148.4,64.3,148.4,64.3,148.4z"/>
			<path id="XMLID_114_" class="st7" d="M52.2,149.2c0,0.1-0.1,0.1-0.1,0.2C52.1,149.3,52.2,149.2,52.2,149.2z"/>
			<path id="XMLID_113_" class="st7" d="M51.8,150C51.8,150,51.8,150,51.8,150C51.8,150,51.8,150,51.8,150z"/>
			<polygon id="XMLID_112_" class="st7" points="72.2,144.1 72.2,144.1 72.2,144.1 			"/>
			<path id="XMLID_111_" class="st7" d="M55,145.4L55,145.4L55,145.4z"/>
			<path id="XMLID_110_" class="st7" d="M54.4,146C54.4,146,54.4,145.9,54.4,146C54.4,145.9,54.4,146,54.4,146z"/>
			<path id="XMLID_109_" class="st7" d="M53.8,146.6c0,0,0.1-0.1,0.1-0.1C53.9,146.5,53.8,146.6,53.8,146.6z"/>
			<path id="XMLID_108_" class="st7" d="M72.4,147.9l-0.6-2.6L72.4,147.9z"/>
			<path id="XMLID_107_" class="st7" d="M62.4,149.8C62.4,149.8,62.4,149.8,62.4,149.8C62.4,149.8,62.4,149.8,62.4,149.8z"/>
			<path id="XMLID_106_" class="st7" d="M62.6,149.9C62.6,149.9,62.6,149.9,62.6,149.9C62.6,149.9,62.6,149.9,62.6,149.9z"/>
			<path id="XMLID_105_" class="st7" d="M52.5,148.5c0,0.1-0.1,0.1-0.1,0.2C52.5,148.6,52.5,148.5,52.5,148.5z"/>
			<path id="XMLID_104_" class="st7" d="M62,149.7C62,149.7,62,149.7,62,149.7C62,149.7,62,149.7,62,149.7z"/>
			<path id="XMLID_103_" class="st7" d="M62.3,149.8C62.3,149.8,62.3,149.8,62.3,149.8C62.3,149.8,62.3,149.8,62.3,149.8z"/>
			<path id="XMLID_102_" class="st7" d="M62.1,149.8C62.1,149.8,62.1,149.8,62.1,149.8C62.1,149.8,62.1,149.8,62.1,149.8z"/>
			<path id="XMLID_101_" class="st7" d="M61.3,148.9C61.3,148.9,61.3,148.9,61.3,148.9C61.3,148.9,61.3,148.9,61.3,148.9z"/>
			<path id="XMLID_100_" class="st7" d="M61.3,148C61.3,148,61.3,148,61.3,148C61.3,148,61.3,148,61.3,148z"/>
			<path id="XMLID_99_" class="st7" d="M61.4,147.6C61.4,147.6,61.4,147.6,61.4,147.6C61.4,147.6,61.4,147.6,61.4,147.6z"/>
			<path id="XMLID_98_" class="st7" d="M61.9,147.1C61.9,147.1,61.9,147.1,61.9,147.1C61.9,147.1,61.9,147.1,61.9,147.1z"/>
			<path id="XMLID_97_" class="st7" d="M61.3,147.9C61.3,147.9,61.3,147.9,61.3,147.9C61.3,147.9,61.3,147.9,61.3,147.9z"/>
			<path id="XMLID_96_" class="st7" d="M61.4,147.8C61.4,147.8,61.4,147.8,61.4,147.8C61.4,147.8,61.4,147.8,61.4,147.8z"/>
			<path id="XMLID_95_" class="st7" d="M63,146.9C63,146.9,63,146.9,63,146.9C63,146.9,63,146.9,63,146.9z"/>
			<path id="XMLID_94_" class="st7" d="M63.3,147C63.3,147,63.3,147,63.3,147C63.3,147,63.3,147,63.3,147z"/>
			<path id="XMLID_93_" class="st7" d="M62.2,147C62.2,147,62.2,147,62.2,147C62.2,147,62.2,147,62.2,147z"/>
			<path id="XMLID_92_" class="st7" d="M62.5,146.9C62.5,146.9,62.5,146.9,62.5,146.9C62.5,146.9,62.5,146.9,62.5,146.9z"/>
			<path id="XMLID_91_" class="st7" d="M64.2,148.2C64.2,148.2,64.2,148.2,64.2,148.2C64.2,148.2,64.2,148.2,64.2,148.2z"/>
			<path id="XMLID_90_" class="st7" d="M62.8,143.5C62.8,143.5,62.8,143.5,62.8,143.5C62.8,143.5,62.8,143.5,62.8,143.5z"/>
			<path id="XMLID_89_" class="st7" d="M62.8,143.4C62.8,143.4,62.8,143.4,62.8,143.4C62.8,143.4,62.8,143.4,62.8,143.4z"/>
			<path id="XMLID_88_" class="st7" d="M62.8,143.3C62.8,143.3,62.8,143.3,62.8,143.3C62.8,143.3,62.8,143.3,62.8,143.3z"/>
			<path id="XMLID_87_" class="st7" d="M62.8,143.7L62.8,143.7L62.8,143.7c0-0.1,0-0.1,0-0.2C62.8,143.6,62.8,143.7,62.8,143.7z"/>
			<path id="XMLID_86_" class="st7" d="M72.3,149.2C72.2,149.2,72.2,149.2,72.3,149.2C72.2,149.2,72.2,149.2,72.3,149.2z"/>
			<path id="XMLID_85_" class="st7" d="M61.2,148.2C61.2,148.2,61.2,148.2,61.2,148.2C61.2,148.2,61.2,148.2,61.2,148.2z"/>
			<path id="XMLID_84_" class="st7" d="M61.3,148.7C61.3,148.7,61.3,148.7,61.3,148.7C61.3,148.7,61.3,148.7,61.3,148.7z"/>
			<path id="XMLID_83_" class="st7" d="M72.3,149c0,0,0,0.1-0.1,0.1C72.3,149.1,72.3,149.1,72.3,149z"/>
			<path id="XMLID_82_" class="st2" d="M66.6,157.9c0-0.1-0.1-0.1-0.1-0.2C66.5,157.8,66.5,157.8,66.6,157.9L66.6,157.9z"/>
			<path id="XMLID_81_" class="st3" d="M66.9,158.3C66.9,158.3,66.9,158.3,66.9,158.3C66.9,158.3,66.9,158.3,66.9,158.3
				s-0.2-0.1-0.4-0.4l0,0C66.8,158.1,66.9,158.3,66.9,158.3z"/>
			
				<ellipse id="XMLID_80_" transform="matrix(0.9968 -7.970150e-002 7.970150e-002 0.9968 -11.2299 6.181)" class="st8" cx="71.8" cy="143.8" rx="0" ry="0"/>
			<path id="XMLID_79_" class="st8" d="M72.5,148.4C72.5,148.4,72.5,148.4,72.5,148.4L72.5,148.4C72.5,148.4,72.5,148.4,72.5,148.4z
				"/>
			<path id="XMLID_78_" class="st9" d="M72.6,144.7L72.6,144.7L72.6,144.7C72.6,144.7,72.6,144.7,72.6,144.7L72.6,144.7
				c-0.1-0.2-0.3-0.4-0.4-0.5c0,0,0,0,0,0c0,0,0,0,0,0c0,0,0,0,0,0l0,0c-0.1-0.1-0.1-0.1-0.2-0.2c0,0-0.1,0-0.1-0.1
				c0,0-0.1-0.1-0.1-0.1v0v1.5l0.6,2.6l0,0c0,0,0,0,0,0.1l0.4,0.4l0,0h0.4c0,0,0-0.1,0-0.1v0C73.2,147,73,145.8,72.6,144.7
				L72.6,144.7C72.6,144.7,72.6,144.7,72.6,144.7z"/>
			<path id="XMLID_77_" class="st9" d="M72.5,148.4C72.5,148.4,72.5,148.4,72.5,148.4C72.5,148.4,72.5,148.4,72.5,148.4L72.5,148.4z
				"/>
			<path id="XMLID_76_" class="st10" d="M72.4,148.1C72.4,148.1,72.4,148.1,72.4,148.1C72.4,148.1,72.4,148.1,72.4,148.1
				C72.4,148.1,72.4,148.1,72.4,148.1c0,0.1,0,0.1,0,0.2c0,0,0,0,0,0c0,0,0,0,0,0c0,0,0,0,0,0c0,0,0,0,0,0c0,0.1,0,0.1,0,0.2
				c0,0,0,0,0,0c0,0,0,0,0,0c0,0,0,0,0,0c0,0.1,0,0.1,0,0.2c0,0,0,0,0,0l0,0l0,0c0,0,0,0,0,0l0,0l0.4-0.4l-0.4-0.4c0,0,0,0,0,0
				C72.4,148,72.4,148.1,72.4,148.1z"/>
			<path id="XMLID_219_" d="M72.4,148.6C72.4,148.6,72.4,148.6,72.4,148.6c0-0.1,0-0.1,0-0.2c0,0,0,0,0,0c0,0,0,0,0,0
				c0-0.1,0-0.1,0-0.2c0,0,0,0,0,0c0-0.1,0-0.1,0-0.2c0,0,0,0,0-0.1c0-0.1-0.1-0.2-0.2-0.3c0,0,0,0,0,0c0,0,0,0-0.1-0.1
				c0,0-0.1-0.1-0.1-0.1c0,0,0,0,0,0c0,0-0.1,0-0.1,0c0,0,0,0,0,0c0,0-0.1,0-0.1,0c0,0-0.1,0-0.1,0c0,0,0,0,0,0c0,0-0.1,0-0.1,0
				c0,0,0,0,0,0c0,0-0.1,0-0.1,0.1c0,0,0,0-0.1,0.1c0,0,0,0,0,0c-0.1,0.1-0.1,0.2-0.2,0.3c0,0,0,0,0,0c0,0.1,0,0.1,0,0.2
				c0,0,0,0,0,0.1c0,0.1,0,0.1,0,0.2c0,0,0,0,0,0h0c0,0.6,0.3,1.1,0.6,1.1c0.1,0,0.1,0,0.2,0c0,0,0,0,0,0c0,0,0,0,0.1,0c0,0,0,0,0,0
				c0,0,0.1-0.1,0.1-0.1c0,0,0,0,0.1-0.1c0,0,0,0,0-0.1c0,0,0-0.1,0.1-0.1c0,0,0,0,0,0c0-0.1,0-0.1,0.1-0.2
				C72.4,148.8,72.4,148.7,72.4,148.6z M71.8,148.2c-0.1,0-0.2-0.2-0.2-0.4c0-0.2,0.1-0.4,0.2-0.4s0.2,0.2,0.2,0.4
				C72.1,148,72,148.2,71.8,148.2z"/>
			<ellipse id="XMLID_73_" class="st8" cx="71.8" cy="147.8" rx="0.2" ry="0.4"/>
			<path id="XMLID_72_" class="st11" d="M71.2,147.9L71.2,147.9c0-0.1,0.1-0.2,0.2-0.3c0,0,0,0,0,0c0,0,0,0,0.1-0.1
				c0,0,0.1-0.1,0.1-0.1c0,0,0,0,0,0c0,0,0.1,0,0.1,0c0,0,0,0,0,0c0,0,0.1,0,0.1,0s0.1,0,0.1,0c0,0,0,0,0,0c0,0,0.1,0,0.1,0
				c0,0,0,0,0,0c0,0,0.1,0,0.1,0.1c0,0,0,0,0.1,0.1c0,0,0,0,0,0c0.1,0.1,0.1,0.2,0.2,0.3v0l0,0l-0.6-2.6L71.2,147.9L71.2,147.9z"/>
			<path id="XMLID_214_" d="M64.3,148.3c0-0.1,0-0.1,0-0.2c0,0,0,0,0,0c0-0.1,0-0.1,0-0.1c0,0,0,0,0,0c0,0,0-0.1,0-0.1c0,0,0,0,0,0
				c0,0,0-0.1-0.1-0.1c0,0,0,0,0,0c0,0,0-0.1-0.1-0.1l0,0c-0.1-0.1-0.2-0.2-0.3-0.3c-0.1-0.1-0.3-0.2-0.5-0.3c0,0,0,0,0,0
				c-0.1,0-0.2-0.1-0.3-0.1c0,0,0,0,0,0c-0.1,0-0.2,0-0.3,0c-0.1,0-0.2,0-0.3,0c0,0,0,0,0,0c-0.1,0-0.2,0-0.3,0.1c0,0,0,0,0,0
				c-0.1,0-0.2,0.1-0.2,0.1c0,0,0,0,0,0c-0.1,0.1-0.2,0.1-0.2,0.2l0,0l0,0c-0.1,0.1-0.2,0.2-0.3,0.3c0,0,0,0,0,0c0,0,0,0.1-0.1,0.1
				c0,0,0,0,0,0c0,0,0,0.1,0,0.1c0,0,0,0,0,0c0,0,0,0.1,0,0.1c0,0,0,0,0,0c0,0,0,0.1,0,0.1c0,0,0,0,0,0c0,0.1,0,0.1,0,0.2
				c0,0.1,0,0.2,0,0.3c0,0,0,0,0,0c0,0.1,0,0.2,0.1,0.3c0,0,0,0,0,0c0.1,0.2,0.2,0.3,0.3,0.5c0.1,0.1,0.2,0.2,0.4,0.3c0,0,0,0,0,0
				c0,0,0.1,0,0.1,0.1c0,0,0,0,0,0c0,0,0.1,0,0.1,0c0,0,0,0,0,0c0,0,0.1,0,0.1,0c0,0,0,0,0,0c0,0,0.1,0,0.1,0c0,0,0,0,0,0
				c0.1,0,0.1,0,0.2,0c0.2,0,0.4,0,0.6-0.1c0.1,0,0.2-0.1,0.3-0.1c0.2-0.1,0.3-0.2,0.4-0.4c0.1-0.1,0.1-0.2,0.1-0.3
				C64.2,148.8,64.3,148.6,64.3,148.3C64.3,148.4,64.3,148.4,64.3,148.3L64.3,148.3C64.3,148.4,64.3,148.4,64.3,148.3L64.3,148.3z
				 M62.7,148.2c-0.3,0-0.6-0.3-0.6-0.6c0-0.3,0.3-0.6,0.6-0.6c0.3,0,0.6,0.3,0.6,0.6C63.3,147.9,63.1,148.2,62.7,148.2z"/>
			<circle id="XMLID_69_" class="st8" cx="62.7" cy="147.6" r="0.6"/>
			<path id="XMLID_68_" class="st9" d="M61.7,147.3L61.7,147.3L61.7,147.3L61.7,147.3L61.7,147.3l1-3.2c0,0,0-0.2,0-0.4
				c0-0.1,0-0.1,0-0.2c0,0,0,0,0,0c0,0,0,0,0-0.1c0,0,0,0,0,0c0,0,0,0,0,0c0,0,0,0,0,0c0,0,0,0,0,0c-0.6-0.1-1.2-0.2-1.8-0.2
				c-0.2,0-0.4,0-0.6,0c0,0-0.1,0-0.1,0c-1,0.1-2.1,0.4-3,0.8c-0.8,0.4-1.6,0.9-2.3,1.4l0,0c0,0,0,0,0,0c-0.2,0.2-0.4,0.3-0.5,0.5
				c0,0-0.1,0.1-0.1,0.1c-0.2,0.2-0.3,0.3-0.5,0.5c0,0-0.1,0.1-0.1,0.1c-0.2,0.2-0.3,0.4-0.4,0.5c0,0,0,0,0,0
				c-0.1,0.2-0.3,0.4-0.4,0.6c0,0,0,0.1-0.1,0.1c-0.1,0.2-0.2,0.3-0.3,0.5h4.7h0L61.7,147.3z"/>
			<path id="XMLID_67_" class="st12" d="M65.7,146.9c0-0.1,0-0.2,0-0.4c0-0.2,0-0.3,0-0.5c0-0.1,0-0.3,0-0.4c0,0,0-0.1,0-0.1
				c0-0.3,0-0.7,0-1l0,0l0,0c0,0,0,0,0,0c0,0,0,0,0,0c0,0,0,0,0,0c0,0,0,0,0,0c-0.1,0-0.2-0.1-0.4-0.2c0,0,0,0,0,0
				c0,0-0.1,0-0.1-0.1c0,0,0,0,0,0c0,0,0,0-0.1,0c0,0,0,0,0,0c0,0,0,0,0,0c-0.2-0.1-0.4-0.2-0.7-0.3c-0.5-0.2-1.3-0.4-1.7-0.5v0.3
				v0.1v0c0,0.2,0,0.4,0,0.4l1,3.2l0,0c0.1,0.1,0.2,0.2,0.3,0.3l0,0c0,0,0,0.1,0.1,0.1c0,0,0,0,0,0c0,0,0,0.1,0.1,0.1c0,0,0,0,0,0
				c0,0,0,0.1,0,0.1c0,0,0,0,0,0c0,0,0,0.1,0,0.1c0,0,0,0,0,0c0,0.1,0,0.1,0,0.2l0,0l0,0h1.3C65.6,147.9,65.7,147.4,65.7,146.9
				C65.7,146.9,65.7,146.9,65.7,146.9z"/>
			<path id="XMLID_66_" class="st13" d="M67.4,145.8C67.4,145.8,67.4,145.8,67.4,145.8C67.4,145.8,67.4,145.8,67.4,145.8L67.4,145.8
				z"/>
			<path id="XMLID_65_" class="st13" d="M64.3,152.9c0.3-0.3,0.6-0.6,0.8-0.8c0.2-0.2,0.3-0.3,0.4-0.5c1.1-1.1,1.8-2.2,2.3-3.6
				c0,0,0-0.1,0-0.1c0,0,0,0,0,0c0-0.1,0-0.1,0-0.2c0,0,0-0.1,0-0.1c-0.1-0.6-0.3-1.2-0.5-1.8c0,0,0,0,0,0c0,0,0,0,0,0
				c0,0-0.1-0.1-0.1-0.1c-0.1-0.1-0.2-0.2-0.4-0.3c-0.4-0.3-0.8-0.6-1.2-0.8l0,0c0,0.3,0,0.7,0,1c0,0,0,0.1,0,0.1c0,0.1,0,0.3,0,0.4
				c0,0.2,0,0.3,0,0.5c0,0.1,0,0.2,0,0.4c0,0,0,0,0,0c0,0.5-0.1,0.9-0.2,1.4l-0.1,0.7c-0.3,1.3-0.9,2.4-1.5,3.6
				c-0.1,0.3-0.3,0.6-0.4,0.9c0,0,0,0.1,0,0.1c0.2-0.2,0.3-0.3,0.4-0.4C64,153.1,64.2,153,64.3,152.9z"/>
			<path id="XMLID_64_" class="st11" d="M61.7,147.3L61.7,147.3c0.1-0.1,0.1-0.1,0.2-0.2c0,0,0,0,0,0c0.1,0,0.2-0.1,0.2-0.1
				c0,0,0,0,0,0c0.1,0,0.2-0.1,0.3-0.1c0,0,0,0,0,0c0.1,0,0.2,0,0.3,0c0.1,0,0.2,0,0.3,0c0,0,0,0,0,0c0.1,0,0.2,0,0.3,0.1
				c0,0,0,0,0,0c0.2,0.1,0.3,0.2,0.5,0.3l0,0l-1-3.2L61.7,147.3z"/>
			<path id="XMLID_63_" class="st10" d="M61.3,148.9c0-0.1-0.1-0.2-0.1-0.3c0,0,0,0,0,0c0-0.1,0-0.2,0-0.3c0-0.1,0-0.1,0-0.2
				c0,0,0,0,0,0c0,0,0-0.1,0-0.1c0,0,0,0,0,0c0,0,0-0.1,0-0.1c0,0,0,0,0,0c0,0,0-0.1,0-0.1c0,0,0,0,0,0c0,0,0-0.1,0.1-0.1
				c0,0,0,0,0,0c0.1-0.1,0.2-0.2,0.3-0.3l0,0l-4.4,1.1h0l4.3,1.1C61.5,149.3,61.4,149.1,61.3,148.9
				C61.3,148.9,61.3,148.9,61.3,148.9z"/>
			<path id="XMLID_62_" class="st12" d="M71.2,148.1C71.2,148.1,71.2,148.1,71.2,148.1c0-0.1,0-0.2,0.1-0.2c0,0,0,0,0,0l0.6-2.6
				v-1.5c-0.5-0.4-1-0.6-1.5-0.6c-0.7,0-1.3,0.4-1.7,0.8c-0.5,0.5-0.9,1.1-1.2,1.7c0,0,0,0.1,0,0.1c0.1,0.1,0.2,0.2,0.3,0.3
				c0.2,0.2,0.4,0.4,0.6,0.6c0.1,0.1,0.2,0.2,0.3,0.3c0.1,0.1,0.2,0.2,0.3,0.3c0.1,0.1,0.3,0.3,0.4,0.4c0.1,0.1,0.1,0.1,0.2,0.2
				c0.1,0.2,0.3,0.3,0.4,0.5l0,0c0,0,0,0,0,0.1h1.3c0,0,0,0,0,0C71.2,148.3,71.2,148.2,71.2,148.1z"/>
			<path id="XMLID_61_" class="st12" d="M67.4,145.8C67.4,145.8,67.4,145.8,67.4,145.8L67.4,145.8C67.4,145.8,67.4,145.8,67.4,145.8
				C67.4,145.8,67.4,145.8,67.4,145.8C67.4,145.8,67.4,145.8,67.4,145.8z"/>
			<path id="XMLID_60_" class="st2" d="M51.8,150C51.8,150,51.8,150,51.8,150c0.1-0.2,0.2-0.5,0.3-0.7c0-0.1,0.1-0.1,0.1-0.2
				c0.1-0.2,0.2-0.3,0.2-0.5c0-0.1,0.1-0.1,0.1-0.2c0,0,0-0.1,0.1-0.1c0.1-0.2,0.2-0.3,0.3-0.5c0,0,0-0.1,0.1-0.1
				c0.1-0.2,0.2-0.4,0.4-0.6c0,0,0,0,0,0c0.1-0.2,0.3-0.4,0.4-0.5c0,0,0.1-0.1,0.1-0.1c0.2-0.2,0.3-0.3,0.5-0.5c0,0,0.1-0.1,0.1-0.1
				c0.2-0.2,0.3-0.3,0.5-0.5c0,0,0,0,0,0c0.7-2.4,2.9-4.2,5.5-4.2c1,0,2.1,0.3,3,0.8c0.9,0.6,1.7,1.4,2.2,2.3c0,0,0,0,0,0
				c0,0,0,0,0,0.1l0,0l0,0c0,0,0,0,0,0c0,0,0,0,0,0c0.4,0.3,0.8,0.5,1.2,0.8c0.1,0.1,0.2,0.2,0.4,0.3c0,0,0.1,0.1,0.1,0.1
				c0,0,0,0,0,0c0,0,0,0,0,0c0,0,0-0.1,0-0.1c0.4-2.3,1.4-4,2.6-4c0.9,0,1.7,0.9,2.2,2.4l0,0c0,0,0,0,0,0c0.1,0.2,0.3,0.3,0.4,0.5h0
				c0,0,0,0,0,0v0v0c0,0,0,0,0,0.1l0,0l0-0.1c-1.5-4.4-5.7-7.6-10.7-7.6c-6.2,0-11.2,5-11.2,11.2c0,1.2,0.2,2.4,0.6,3.5c0,0,0,0,0,0
				c0.1-0.3,0.2-0.7,0.3-1C51.6,150.5,51.7,150.3,51.8,150z"/>
			<path id="XMLID_59_" class="st8" d="M72.8,148.4l-0.4,0.4l0,0c0,0,0,0,0,0c0,0.1,0,0.1-0.1,0.2c0,0,0,0,0,0c0,0,0,0.1-0.1,0.1
				c0,0,0,0,0,0.1c0,0,0,0-0.1,0.1c0,0-0.1,0.1-0.1,0.1c0,0,0,0,0,0c0,0,0,0-0.1,0c0,0,0,0,0,0c-0.1,0-0.1,0-0.2,0
				c-0.4,0-0.6-0.5-0.6-1.1h0h0h-1.3h0c0,0,0,0,0,0c0.2,0.3,0.5,0.6,0.7,0.8c0,0,0,0,0,0c0.2,0.3,0.4,0.6,0.7,0.8c0,0,0,0,0,0
				c0.2,0.3,0.4,0.5,0.6,0.8c0,0,0,0.1,0.1,0.1c0.2,0.3,0.4,0.6,0.6,0.9c0,0,0,0,0,0c0.4-1.1,0.6-2.3,0.6-3.5h0L72.8,148.4
				L72.8,148.4z"/>
			<path id="XMLID_58_" d="M60.3,143.2C60.3,143.2,60.3,143.2,60.3,143.2c0.3,0,0.5,0,0.7,0c0.6,0,1.2,0.1,1.8,0.2c0,0,0,0,0,0
				c0,0,0,0,0,0c0,0,0,0,0,0c0,0,0,0,0,0c0,0,0,0,0,0.1c0,0,0,0,0,0c0,0,0,0,0,0.1v-0.3c0.4,0.1,1.1,0.3,1.7,0.5
				c0.2,0.1,0.4,0.2,0.7,0.3c0,0,0,0,0,0c0,0,0,0,0,0c0,0,0,0,0.1,0c0,0,0,0,0,0c0,0,0.1,0,0.1,0.1c0,0,0,0,0,0
				c0.1,0.1,0.3,0.2,0.4,0.2c0,0,0,0,0,0c0,0,0,0,0,0l0,0c0,0,0,0,0-0.1c0,0,0,0,0,0c-0.5-1-1.2-1.8-2.2-2.3c-0.9-0.5-1.9-0.8-3-0.8
				c-2.6,0-4.8,1.8-5.5,4.2c0.7-0.6,1.4-1.1,2.3-1.4C58.2,143.5,59.2,143.3,60.3,143.2z"/>
			<line id="XMLID_57_" class="st7" x1="62.8" y1="143.6" x2="62.8" y2="143.7"/>
			<path id="XMLID_56_" d="M68.6,144c0.5-0.4,1.1-0.8,1.7-0.8c0.5,0,1,0.2,1.5,0.6c0,0,0,0,0,0v0v0c0,0,0.1,0.1,0.1,0.1
				c0,0,0.1,0,0.1,0.1c0.1,0.1,0.1,0.1,0.2,0.2l0,0c0,0,0,0,0,0c0,0,0,0,0,0l0,0l0,0c-0.5-1.5-1.3-2.4-2.2-2.4c-1.2,0-2.2,1.7-2.6,4
				l0,0C67.7,145.1,68.1,144.5,68.6,144z"/>
			<path id="XMLID_55_" class="st8" d="M58,158.7c0.1,0,0.2,0.1,0.3,0.1c1.2,0.4,2.4,0.6,3.7,0.6c1.5,0,2.9-0.3,4.2-0.8
				c0.1,0,0.1-0.1,0.2-0.1c0.1,0,0.2-0.1,0.3-0.1c0.1,0,0.2-0.1,0.3-0.1c0,0,0,0-0.1,0l0,0c-0.4,0-0.8,0-1.2,0
				c-2.3-0.3-2.8-1.4-2.8-2.6c-0.2-0.1-0.3-0.2-0.5-0.3c-1.8-1.3-2.8-2.7-2.8-2.7s1.4,1.1,3.4,1.9c0,0,0.1,0,0.1,0
				c0.1-0.3,0.2-0.6,0.3-0.9l0,0c0,0,0-0.1,0-0.1c0.1-0.3,0.2-0.6,0.4-0.9c0.5-1.2,1.1-2.3,1.5-3.6l0.1-0.7h-1.3h0l0,0c0,0,0,0,0,0
				l0,0l0,0c0,0,0,0,0,0c0,0.2,0,0.4-0.1,0.6c0,0.1-0.1,0.2-0.1,0.3c-0.1,0.2-0.2,0.3-0.4,0.4c-0.1,0.1-0.2,0.1-0.3,0.1
				c-0.2,0.1-0.4,0.1-0.6,0.1c-0.1,0-0.1,0-0.2,0c0,0,0,0,0,0c0,0-0.1,0-0.1,0c0,0,0,0,0,0c0,0-0.1,0-0.1,0c0,0,0,0,0,0
				c0,0-0.1,0-0.1,0c0,0,0,0,0,0c0,0-0.1,0-0.1-0.1c0,0,0,0,0,0c-0.1-0.1-0.2-0.2-0.4-0.3l-4.3-1.1h-4.7c0,0,0,0.1-0.1,0.1
				c0,0.1-0.1,0.1-0.1,0.2c-0.1,0.2-0.2,0.3-0.2,0.5c0,0.1-0.1,0.1-0.1,0.2c-0.1,0.2-0.2,0.4-0.3,0.6c0,0,0,0,0,0
				c-0.1,0.2-0.2,0.5-0.3,0.8c-0.1,0.3-0.2,0.7-0.3,1c0.7,2.3,2.2,4.2,4.1,5.6c0.1,0,0.1,0.1,0.2,0.1c0.3,0.2,0.7,0.4,1,0.6
				C57,158.3,57.5,158.5,58,158.7z"/>
			<path id="XMLID_54_" class="st14" d="M65.7,155.2c0,0.1,0,0.2,0,0.4c0,0.2,0,0.4,0,0.6c0,0.1,0,0.2,0.1,0.4
				c0,0.2,0.1,0.3,0.2,0.5c0.1,0.1,0.1,0.3,0.2,0.4c0,0,0.1,0.1,0.1,0.1c0,0.1,0.1,0.1,0.1,0.2c0.1,0.1,0.1,0.1,0.1,0.2
				c0.2,0.2,0.4,0.4,0.4,0.4s0,0,0,0c0,0,0,0,0,0l0,0c0,0,0,0,0.1,0c0.5-0.1,1-0.2,1.5-0.4c0.3-0.1,0.5-0.2,0.8-0.3
				c0.1,0,0.2-0.1,0.2-0.1c2.6-1.2,4.7-3.4,4.7-3.4C71,155.6,67.8,155.6,65.7,155.2z"/>
			<path id="XMLID_53_" class="st15" d="M71.9,150.9c-0.2-0.3-0.4-0.5-0.6-0.8c0,0,0,0,0,0c-0.2-0.3-0.4-0.6-0.7-0.8c0,0,0,0,0,0
				c-0.2-0.3-0.5-0.6-0.7-0.8c0,0,0,0,0-0.1c-0.1-0.2-0.3-0.3-0.4-0.5c-0.1-0.1-0.1-0.1-0.2-0.2c-0.1-0.1-0.3-0.3-0.4-0.4
				c-0.1-0.1-0.2-0.2-0.3-0.3c-0.1-0.1-0.2-0.2-0.3-0.3c-0.2-0.2-0.4-0.4-0.6-0.6c-0.1-0.1-0.2-0.2-0.3-0.3c0,0,0,0,0,0
				c0.2,0.6,0.4,1.2,0.6,1.8c0,0.2,0.1,0.3,0.1,0.5c0.3,2.1-0.4,3.5-1.5,5.3c-0.1,0.1-0.2,0.3-0.2,0.4c-0.2,0.4-0.4,0.8-0.5,1.2
				c0,0.1-0.1,0.2-0.1,0.4c2.1,0.3,5.3,0.4,8.5-1.2c0,0-0.6-0.9-1.6-2.2C72.4,151.6,72.2,151.3,71.9,150.9
				C72,151,71.9,150.9,71.9,150.9z"/>
			<path id="XMLID_52_" d="M66.9,158.3c0,0-0.2-0.1-0.4-0.4c0-0.1-0.1-0.1-0.1-0.2c0-0.1-0.1-0.1-0.1-0.2c0,0-0.1-0.1-0.1-0.1
				c-0.1-0.1-0.2-0.3-0.2-0.4c-0.1-0.1-0.1-0.3-0.2-0.5c0-0.1-0.1-0.2-0.1-0.4c0-0.2,0-0.4,0-0.6c0-0.1,0-0.2,0-0.4
				c0-0.1,0-0.2,0.1-0.4c0.1-0.4,0.2-0.8,0.5-1.2c0,0,0,0,0,0c0.1-0.1,0.2-0.3,0.2-0.4c1.1-1.8,1.7-3.2,1.5-5.3c0-0.2,0-0.3-0.1-0.5
				c0,0.1,0,0.2,0,0.3c0,0,0,0,0,0c0,0,0,0.1,0,0.1c-0.5,1.4-1.2,2.4-2.3,3.6c-0.1,0.2-0.3,0.3-0.4,0.5c-0.3,0.3-0.5,0.5-0.8,0.8
				c-0.1,0.1-0.2,0.2-0.3,0.3c-0.1,0.1-0.3,0.3-0.4,0.4l0,0c-0.1,0.3-0.2,0.6-0.3,0.9c0,0-0.1,0-0.1,0c-2-0.8-3.4-1.9-3.4-1.9
				s1.1,1.4,2.8,2.7c0.2,0.1,0.3,0.2,0.5,0.3c-0.1,1.2,0.4,2.3,2.8,2.6C66.1,158.4,66.5,158.3,66.9,158.3
				C66.9,158.3,66.9,158.3,66.9,158.3C66.9,158.3,66.9,158.3,66.9,158.3z"/>
		</g>
	</g>
</g>
</svg>
