<?xml version="1.0" encoding="utf-8"?>
<!-- Generator: Adobe Illustrator 19.2.1, SVG Export Plug-In . SVG Version: 6.00 Build 0)  -->
<svg version="1.1" id="Calque_1" xmlns="http://www.w3.org/2000/svg" xmlns:xlink="http://www.w3.org/1999/xlink" x="0px" y="0px"
	 viewBox="0 0 283.5 283.5" style="enable-background:new 0 0 283.5 283.5;" xml:space="preserve">
<style type="text/css">
	.st0{fill:none;stroke:#A4C3E0;stroke-width:8;stroke-miterlimit:10;}
	.st1{fill:#A3C2DF;}
</style>
<circle class="st0" cx="142.4" cy="143.4" r="131"/>
<g>
	<path class="st1" d="M109.8,151.8c0.3-1.2,0.6-2.4,1-3.6c0.8-3.1,1.7-6.2,2.5-9.3c0.2-0.7,0.1-0.6,0.7-0.6c1.2,0,2.4,0,3.6,0
		c0.6,0,0.6,0,0.7,0.6c1,3.6,1.9,7.1,2.9,10.7c0.2,0.7,0.4,1.4,0.6,2.2c0.2-0.2,0.2-0.4,0.2-0.6c1-4.1,2-8.1,3-12.2c0,0,0,0,0-0.1
		c0.2-0.6,0.2-0.6,0.8-0.6c1.4,0,2.8,0,4.3,0c0.2,0,0.4,0,0.5,0.1c0,0.2,0,0.4-0.1,0.5c-1.8,6-3.6,12.1-5.4,18.1
		c-0.2,0.6-0.1,0.5-0.7,0.5c-1.5,0-3,0-4.5,0c-0.7,0-0.5,0.1-0.7-0.6c-1.1-3.7-2.1-7.4-3.2-11.1c0-0.2-0.1-0.3-0.2-0.4
		c-0.2,0.1-0.2,0.3-0.2,0.5c-1.1,3.6-2.1,7.3-3.2,10.9c-0.2,0.7,0,0.6-0.9,0.7c-1.5,0-2.9,0-4.4,0c-0.7,0-0.6,0.1-0.8-0.6
		c-1.6-5.2-3.1-10.5-4.7-15.8c-0.3-0.9-0.6-1.9-0.8-2.8c0.3-0.1,0.6-0.1,0.9-0.1c1.3,0,2.7,0,4,0c0.7,0,0.6-0.1,0.7,0.5
		c0.7,2.6,1.3,5.2,1.9,7.8c0.4,1.5,0.8,3.1,1.1,4.6c0,0.1,0.1,0.3,0.1,0.4C109.7,151.8,109.8,151.8,109.8,151.8z"/>
	<path class="st1" d="M156.5,155.9c0,0.5,0,0.9,0,1.4c0,0.3-0.1,0.4-0.3,0.4c-1.4,0-2.7,0-4.1,0c-0.2,0-0.3-0.1-0.3-0.3
		c0-0.2,0-0.3,0-0.5c0-8.3,0-16.7,0-25c0-0.1,0-0.2,0-0.3c0-0.5,0-0.5,0.5-0.5c1.4,0,2.7,0,4.1,0c0.5,0,0.5,0,0.5,0.5
		c0,2.6,0,5.3,0,7.9c0,0.2,0,0.5,0,0.7c0.2,0.1,0.2-0.1,0.3-0.1c1.9-1.8,4.2-2.3,6.7-2c3.7,0.5,6.1,2.7,7.2,6.2
		c0.9,2.9,0.8,5.8-0.5,8.6c-2.2,4.9-7.4,5.9-10.8,4.9c-1-0.3-2-0.9-2.8-1.6C156.9,156.1,156.8,155.9,156.5,155.9z M166.5,148.1
		c0-1.3-0.3-2.5-1-3.6c-1.9-2.9-6.3-2.8-8,0.1c-1.3,2.2-1.3,4.6,0,6.8c1.8,3.1,6.6,2.9,8.2-0.3C166.3,150.2,166.5,149.2,166.5,148.1
		z"/>
	<path class="st1" d="M178.7,155.7c0,2,0,3.8,0,5.6c0,0.9,0,1.8,0,2.7c0,0.3-0.1,0.5-0.4,0.5c-1.4,0-2.8,0-4.3,0
		c-0.3,0-0.4-0.1-0.4-0.4c0-0.1,0-0.2,0-0.3c0-8.2,0-16.4,0-24.6c0-0.9-0.1-0.8,0.8-0.8c1.1,0,2.2,0,3.4,0c0.7,0,0.7,0,0.7,0.7
		c0,0.3,0,0.7,0,1c0,0,0,0.1,0.1,0.1c0.1,0.1,0.1,0,0.2-0.1c1.9-1.9,4.2-2.5,6.7-2.1c4.9,0.6,7.6,4.4,8,8.4c0.3,2.1,0.1,4.1-0.7,6.1
		c-2.1,5.5-7.8,6.4-11.2,5.1C180.5,157.2,179.6,156.6,178.7,155.7z M178.6,148.1c0,0.5,0,1.1,0.2,1.6c0.5,2.3,2.2,3.8,4.4,3.9
		c2.4,0.1,4.2-1.2,4.9-3.5c0.4-1.5,0.4-2.9,0-4.4c-0.7-2-2.2-3.2-4.3-3.3c-2.1-0.1-3.8,1-4.6,2.9
		C178.7,146.2,178.6,147.1,178.6,148.1z"/>
	<path class="st1" d="M236.3,146.3c0.3-0.2,0.4-0.4,0.6-0.6c1.7-2.3,3.5-4.5,5.2-6.8c0.3-0.4,0.5-0.5,1-0.5c1.6,0,3.3,0,5,0
		c-0.1,0.3-0.2,0.5-0.4,0.7c-2,2.5-3.9,5.1-5.9,7.6c-0.4,0.6-0.4,0.4,0,1c2.2,3.1,4.3,6.2,6.5,9.4c0.1,0.2,0.3,0.3,0.3,0.6
		c-0.1,0.1-0.3,0.1-0.4,0.1c-1.6,0-3.3,0-4.9,0c-0.4,0-0.6-0.2-0.8-0.5c-1.9-2.9-3.7-5.8-5.6-8.6c-0.1-0.2-0.2-0.4-0.5-0.6
		c-0.1,0.3-0.1,0.5-0.1,0.8c0,2.7,0,5.5,0,8.2c0,0.8,0.1,0.7-0.7,0.7c-1.3,0-2.6,0-3.9,0c-0.4,0-0.5-0.1-0.5-0.5c0-1.1,0-2.3,0-3.4
		c0-7.3,0-14.5,0-21.8c0-0.1,0-0.2,0-0.3c0-0.5,0-0.5,0.5-0.5c1.3,0,2.7,0,4,0c0.5,0,0.5,0,0.5,0.5c0,2.1,0,4.2,0,6.3
		c0,2.5,0,5.1,0,7.6C236.2,145.8,236.1,146,236.3,146.3z"/>
	<path class="st1" d="M146,151.4c1,0.8,2,1.5,3,2.3c0.2,0.2,0.3,0.3,0.1,0.6c-0.5,0.8-1.2,1.5-1.9,2c-2.1,1.5-4.5,2-7,1.8
		c-1-0.1-2-0.3-3-0.7c-3.3-1.3-5.3-3.8-5.9-7.3c-0.4-2.4-0.2-4.8,0.9-7c1.7-3.4,4.5-5.1,8.2-5.2c1,0,2,0.1,3,0.4
		c3,0.8,4.9,2.8,5.8,5.7c0.5,1.5,0.6,3.1,0.6,4.7c0,0.7,0,0.7-0.7,0.7c-4,0-8,0-12,0c-0.2,0-0.3,0-0.5,0c-0.3,0-0.4,0.1-0.4,0.4
		c0.2,1.5,1,2.6,2.3,3.4c2.2,1.2,5.1,0.7,6.9-1.2C145.7,151.8,145.8,151.6,146,151.4z M140.5,146c1.1,0,2.1,0,3.2,0
		c1.2,0,1.2,0,0.8-1.2c-0.6-1.8-2.3-2.9-4.3-2.7c-2.2,0.2-3.4,1.7-3.7,3.5c-0.1,0.4,0,0.4,0.4,0.4C138.1,146,139.3,146,140.5,146z"
		/>
	<path class="st1" d="M206.3,156.5c-2.8,2.5-7.3,1.7-9.3,0.2c-2-1.5-2.8-3.5-2.5-5.9c0.3-2.3,1.6-3.9,3.7-4.8c2.5-1,5-1,7.5,0.2
		c0.1,0,0.1,0,0.3,0.1c0-0.6,0.1-1.2-0.1-1.8c-0.3-1.2-1.3-2-2.8-2.1c-1.5-0.1-3,0.2-4.4,0.7c-0.1,0.1-0.3,0.1-0.4,0.2
		c-0.3,0.1-0.6,0.4-0.9,0.3c-0.3-0.1-0.4-0.5-0.6-0.8c-0.4-0.7-0.8-1.4-1.2-2.2c-0.2-0.3-0.1-0.5,0.2-0.6c1.5-0.9,3.2-1.5,5-1.8
		c1.9-0.3,3.7-0.3,5.6,0.2c2.6,0.7,4,2.5,4.5,5.1c0.1,0.7,0.2,1.4,0.2,2.1c0,3.8,0,7.6,0,11.5c0,0.1,0,0.2,0,0.3
		c0,0.2-0.1,0.3-0.3,0.3c-1.3,0-2.6,0-3.9,0c-0.2,0-0.3-0.1-0.4-0.3C206.5,157.1,206.5,156.8,206.3,156.5z M202.9,154.2
		c0.8,0,1.6-0.2,2.3-0.6c1.4-1,1.4-3,0-4c-1.2-0.9-3.4-0.9-4.6,0c-1.4,1-1.4,3.1,0.1,4.1C201.3,154,202.1,154.2,202.9,154.2z"/>
	<path class="st1" d="M78.8,140c-0.1,0.2-0.2,0.2-0.4,0.3c-4,2.3-8,4.6-11.9,6.9c-0.4,0.2-0.6,0.2-1,0c-4-2.3-8-4.6-11.9-6.9
		c-0.1-0.1-0.3-0.1-0.4-0.3c0.1-0.2,0.3-0.2,0.5-0.3c3.9-2.1,7.8-4.3,11.7-6.5c0.4-0.2,0.8-0.2,1.2,0c3.9,2.2,7.8,4.3,11.7,6.4
		C78.4,139.7,78.6,139.7,78.8,140z"/>
	<path class="st1" d="M52.2,141.7c0.2,0,0.3,0.1,0.5,0.2c4,2.3,7.9,4.6,11.9,6.8c0.3,0.2,0.5,0.4,0.5,0.7c0,4.3,0,8.5,0,12.8
		c0,0.1,0,0.2,0,0.3c-0.2,0.1-0.3,0-0.5-0.1c-4-2.2-8-4.4-12-6.6c-0.3-0.2-0.4-0.4-0.4-0.7c0-4.3,0-8.7,0-13
		C52.2,142,52.1,141.8,52.2,141.7z"/>
	<path class="st1" d="M79.8,141.7c0,0.2,0,0.4,0,0.5c0,4.2,0,8.5,0,12.7c0,0.4-0.1,0.7-0.5,0.9c-3.9,2.1-7.9,4.3-11.8,6.5
		c-0.2,0.1-0.3,0.2-0.5,0.2c-0.2-0.1-0.1-0.3-0.1-0.4c0-4.2,0-8.5,0-12.7c0-0.3,0.1-0.5,0.4-0.7c4-2.3,8.1-4.7,12.1-7
		C79.4,141.7,79.5,141.7,79.8,141.7z"/>
	<path class="st1" d="M227.8,144.3c-0.7-0.6-1.4-1.1-2.2-1.4c-1.1-0.4-2.3-0.5-3.4-0.3c-1.8,0.4-3,1.5-3.7,3.2
		c-0.5,1.3-0.6,2.6-0.2,4c0.9,3.4,4.2,4.5,6.8,3.7c0.5-0.1,1-0.3,1.5-0.6c0.4-0.3,0.8-0.5,1.3-0.8c0.1,0.2,0.1,0.4,0.2,0.6
		c0.3,1,0.6,2,1,2.9c0.2,0.6,0.2,0.6-0.4,1c-1.1,0.7-2.2,1.2-3.5,1.4c-3,0.5-5.8,0-8.3-1.8c-1.4-1-2.4-2.3-3-3.8
		c-1.2-2.9-1.2-5.9,0.1-8.7c1.5-3.1,4-4.9,7.4-5.5c2.7-0.5,5.1,0,7.4,1.5c0.5,0.4,0.5,0.4,0.3,1C228.6,141.8,228.2,143,227.8,144.3z
		"/>
	<path class="st1" d="M89.2,136.2c0,8.2,0,16.3,0,24.5c-0.5-0.1-0.9-0.4-1.3-0.7c-2-1.1-3.9-2.3-5.9-3.4c-0.3-0.2-0.5-0.4-0.5-0.8
		c0-5,0-9.9,0-14.9c0-0.3,0.1-0.5,0.4-0.7c2-1.1,3.9-2.3,5.9-3.4C88.3,136.6,88.7,136.3,89.2,136.2z"/>
	<path class="st1" d="M42.7,160.8c0-8.2,0-16.4,0-24.5c0.3-0.1,0.5,0.1,0.7,0.2c2,1.2,4.1,2.4,6.1,3.5c0.2,0.1,0.3,0.2,0.5,0.3
		c0.3,0.1,0.4,0.4,0.4,0.7c0,0.1,0,0.2,0,0.3c0,4.8,0,9.5,0,14.3c0,0.6-0.2,0.9-0.7,1.2c-2.2,1.2-4.4,2.5-6.5,3.8
		C43.1,160.6,42.9,160.7,42.7,160.8z"/>
	<path class="st1" d="M43.7,134.4c1.1-0.6,2.1-1.2,3.1-1.8c2.3-1.3,4.6-2.6,6.9-3.9c1.9-1.1,3.8-2.2,5.7-3.2
		c1.6-0.9,3.1-1.8,4.7-2.7c0.2-0.1,0.5-0.4,0.8-0.3c0.3,0.2,0.1,0.5,0.1,0.8c0,2.4,0,4.8,0,7.3c0,0.5-0.1,0.7-0.5,0.9
		c-3.5,1.9-7,3.8-10.4,5.7c-0.8,0.4-1.6,0.8-2.4,1.3c-0.4,0.2-0.7,0.2-1,0c-0.9-0.5-1.7-1-2.6-1.5c-1.3-0.8-2.6-1.5-4-2.3
		C44,134.7,43.8,134.7,43.7,134.4z"/>
	<path class="st1" d="M88.3,134.5c-0.6,0.4-1.2,0.7-1.7,1c-1.8,1-3.6,2.1-5.4,3.1c-0.3,0.2-0.6,0.2-1,0c-3.1-1.7-6.2-3.4-9.3-5.1
		c-1.2-0.7-2.5-1.4-3.7-2.1c-0.3-0.2-0.4-0.3-0.4-0.7c0-2.6,0-5.3,0-7.9c0-0.5,0.1-0.5,0.5-0.3c1.8,1,3.7,2.1,5.5,3.1
		c1.9,1.1,3.7,2.1,5.6,3.2c2.6,1.5,5.3,3,7.9,4.5C87,133.7,87.6,134.1,88.3,134.5z"/>
	<path class="st1" d="M65.1,174c-7-4-13.9-7.9-20.9-11.8c0.3-0.3,0.6-0.5,0.9-0.6c2-1.2,4-2.3,6-3.5c0.1-0.1,0.3-0.1,0.4-0.2
		c0.3-0.2,0.6-0.2,0.9,0c2.1,1.2,4.2,2.3,6.4,3.5c1.9,1.1,3.9,2.1,5.8,3.2c0.3,0.2,0.4,0.4,0.4,0.8c0,2.1,0,4.3,0,6.4
		C65.1,172.5,65.1,173.2,65.1,174z"/>
	<path class="st1" d="M87.8,162.2c-7,4-13.9,7.9-20.8,11.8c-0.2-0.1-0.2-0.3-0.2-0.4c0-2.7,0-5.4,0-8.2c0-0.4,0.1-0.6,0.5-0.8
		c3.4-1.9,6.9-3.7,10.3-5.6c0.6-0.3,1.2-0.7,1.8-1c0.3-0.2,0.6-0.2,0.9,0c1.9,1.1,3.9,2.2,5.8,3.4C86.7,161.5,87.2,161.8,87.8,162.2
		z"/>
</g>
</svg>
